# AST/ASF file generated using VICON BodyLanguage
# -----------------------------------------------
:version 1.10
:name VICON
:units
  mass 1.0
  length 0.45
  angle deg
:documentation
   .ast/.asf automatically generated from VICON data using
   VICON BodyBuilder and BodyLanguage model FoxedUp or BRILLIANT.MOD
:root
   order TX TY TZ RX RY RZ
   axis XYZ
   position 0 0 0  
   orientation 0 0 0 
:bonedata
  begin
     id 1 
     name lhipjoint
     direction 0.693937 -0.600361 0.397515 
     length 2.37164 
     axis 0 0 0  XYZ
  end
  begin
     id 2 
     name lfemur
     direction 0.34202 -0.939693 0  
     length 6.18497  
     axis 0 0 20  XYZ
    dof rx ry rz
    limits (-160.0 20.0)
           (-70.0 70.0)
           (-60.0 70.0)
  end
  begin
     id 3 
     name ltibia
     direction 0.34202 -0.939693 0   
     length 6.91601   
     axis 0 0 20   XYZ
    dof rx
    limits (-10.0 170.0)
  end
  begin
     id 4 
     name lfoot
     direction 0.0978718 -0.2689 0.958182   
     length 1.81453   
     axis -90 7.62852e-016 20   XYZ
    dof rx rz
    limits (-45.0 90.0)
           (-70.0 20.0)
  end
  begin
     id 5 
     name ltoes
     direction 1.53569e-011 -4.21951e-011 1   
     length 0.912052   
     axis -90 7.62852e-016 20   XYZ
    dof rx
    limits (-90.0 20.0)
  end
  begin
     id 6 
     name rhipjoint
     direction -0.643996 -0.637876 0.422354   
     length 2.23216  
     axis 0 0 0  XYZ 
  end
  begin
     id 7 
     name rfemur
     direction -0.34202 -0.939693 0   
     length 6.15404   
     axis 0 0 -20   XYZ
    dof rx ry rz
    limits (-160.0 20.0)
           (-70.0 70.0)
           (-70.0 60.0)
  end
  begin
     id 8 
     name rtibia
     direction -0.34202 -0.939693 0   
     length 6.86744   
     axis 0 0 -20   XYZ
    dof rx
    limits (-10.0 170.0)
 end
 begin
     id 9 
     name rfoot
     direction -0.118701 -0.326127 0.937844   
     length 1.9243  
     axis -90 -7.62852e-016 -20   XYZ
    dof rx rz
    limits (-45.0 90.0)
           (-20.0 70.0)
  end
  begin
     id 10 
     name rtoes
     direction -1.5356e-011 -4.2181e-011 1   
     length 0.958865   
     axis -90 -7.62852e-016 -20   XYZ
    dof rx
    limits (-90.0 20.0)
  end
  begin
     id 11 
     name lowerback
     direction 0.0310826 0.968686 -0.246334   
     length 2.00021   
     axis 0 0 0   XYZ
    dof rx ry rz
    limits (-20.0 45.0)
           (-30.0 30.0)
           (-30.0 30.0)
  end
  begin
     id 12 
     name upperback
     direction -0.0152834 0.999474 -0.0286152   
     length 2.03728   
     axis 0 0 0   XYZ
    dof rx ry rz
    limits (-20.0 45.0)
           (-30.0 30.0)
           (-30.0 30.0)
  end
  begin
     id 13 
     name thorax
     direction -0.0323701 0.996236 0.0804149   
     length 2.16   
     axis 0 0 0   XYZ
    dof rx ry rz
    limits (-20.0 45.0)
           (-30.0 30.0)
           (-30.0 30.0)
  end
  begin
     id 14 
     name lowerneck
     direction 0.0307935 0.982251 0.185027   
     length 1.43558   
     axis 0 0 0   XYZ
    dof rx ry rz
    limits (-20.0 45.0)
           (-30.0 30.0)
           (-30.0 30.0)
  end
  begin
     id 15 
     name upperneck
     direction -0.0927153 0.994775 0.0427454   
     length 1.44603   
     axis 0 0 0   XYZ
    dof rx ry rz
    limits (-20.0 45.0)
           (-30.0 30.0)
           (-30.0 30.0)
  end
  begin
     id 16
     name head
     direction -0.0341265 0.999406 -0.00472033  
     length 1.45931  
     axis 0 0 0   XYZ
    dof rx ry rz
    limits (-20.0 45.0)
           (-30.0 30.0)
           (-30.0 30.0)
  end
  begin
     id 17 
     name lclavicle
     direction 0.820755 0.555306 -0.134151  
     length 2.66075  
     axis 0 0 0   XYZ
    dof ry rz
    limits (-20.0 10.0)
           (0.0 20.0)
  end
  begin
     id 18 
     name lhumerus
     direction 1 -4.48971e-011 5.24853e-027   
     length 5.0546   
     axis -180 -30 -90   XYZ
    dof rx ry rz
    limits (-60.0 90.0)
           (-90.0 90.0)
           (-90.0 90.0)
  end
  begin
     id 19
     name lradius
     direction 1 -4.48971e-011 2.76575e-028   
     length 3.39013   
     axis -180 -30 -90   XYZ
    dof rx
    limits (-10.0 170.0)
  end
  begin
     id 20
     name lwrist
     direction 1 -4.48939e-011 -2.27826e-027   
     length 1.69507   
     axis 2.17013e-015 90 90   XYZ
    dof ry
    limits (-180.0 0.0)
 end
  begin
     id 21 
     name lhand
     direction 1 -4.49009e-011 -4.55652e-027   
     length 0.572425   
     axis 2.90745e-015 90 90   XYZ
    dof rx rz
    limits (-90.0 90.0)
           (-45.0 45.0)
  end
  begin
     id 22 
     name lfingers
     direction 1 -4.48955e-011 -9.11303e-027   
     length 0.461504   
     axis 5.81489e-015 90 90   XYZ
    dof rx
    limits (0.0 90.0)
  end
  begin
     id 23
     name lthumb
     direction 0.707107 -6.34929e-011 0.707107   
     length 0.66263   
     axis -90 45 2.85299e-015   XYZ
    dof rx rz
    limits (-45.0 45.0)
           (-45.0 45.0)
  end
  begin
     id 24 
     name rclavicle
     direction -0.754477 0.632921 -0.173712   
     length 2.73081  
     axis 0 0 0   XYZ 
    dof ry rz
    limits (-10.0 20.0)
           (-20.0 0.0)
  end
  begin
     id 25 
     name rhumerus
     direction -1 -4.48969e-011 5.1496e-027  
     length 5.0701   
     axis -180 30 90   XYZ
    dof rx ry rz
    limits (-90.0 60.0)
           (-90.0 90.0)
           (-90.0 90.0)
  end
  begin
     id 26 
     name rradius
     direction -1 -4.48967e-011 -7.15624e-028   
     length 3.14957   
     axis -180 30 90   XYZ
    dof rx
    limits (-10.0 170.0)
  end
  begin
     id 27 
     name rwrist
     direction -1 -4.48938e-011 -2.27826e-027   
     length 1.57479   
     axis 2.17013e-015 -90 -90   XYZ
    dof ry
    limits (-180.0 0.0)
  end
  begin
     id 28
     name rhand
     direction -1 -4.49008e-011 -4.55652e-027   
     length 0.718191   
     axis 2.90745e-015 -90 -90   XYZ
    dof rx rz
    limits (-90.0 90.0)
           (-45.0 45.0)
  end
  begin
     id 29
     name rfingers
     direction -1 -4.48953e-011 -9.11303e-027   
     length 0.579024   
     axis 5.81489e-015 -90 -90   XYZ
    dof rx
    limits (0.0 90.0)
  end
  begin
     id 30
     name rthumb
     direction -0.707107 -6.34937e-011 0.707107   
     length 0.831366   
     axis -90 -45 -2.85299e-015   XYZ
    dof rx rz
    limits (-45.0 45.0)
           (-45.0 45.0)
  end
:hierarchy
  begin
    root lhipjoint rhipjoint lowerback
    lhipjoint lfemur
    lfemur ltibia
    ltibia lfoot
    lfoot ltoes
    rhipjoint rfemur
    rfemur rtibia
    rtibia rfoot
    rfoot rtoes
    lowerback upperback
    upperback thorax
    thorax lowerneck lclavicle rclavicle
    lowerneck upperneck
    upperneck head
    lclavicle lhumerus
    lhumerus lradius
    lradius lwrist
    lwrist lhand lthumb
    lhand lfingers
    rclavicle rhumerus
    rhumerus rradius
    rradius rwrist
    rwrist rhand rthumb
    rhand rfingers
  end

#!OML:ASF H:\Male1\Project 1\Capture day 1\Session 1\Male1.ASF
:FULLY-SPECIFIED
:DEGREES
32
root -24.0891 14.9779 -0.367419 -11.6979 85.8737 -11.1318
lowerback 4.55986 2.37238 -0.10772
upperback 2.99292 3.21876 -1.31586
thorax 0.590783 1.64714 -1.41392
lowerneck -11.3156 4.8002 8.54834
upperneck 10.7703 5.43342 -2.76283
head 5.41419 2.82607 -1.80056
rclavicle -4.66647e-014 7.95139e-016
rhumerus -36.7742 -1.15127 -88.3611
rradius 36.3082
rwrist -21.295
rhand -17.4152 0.0835615
rfingers 7.12502
rthumb 8.83471 -29.7115
lclavicle -4.66647e-014 7.95139e-016
lhumerus -31.6774 -1.88397 84.2226
lradius 30.5967
lwrist -1.16032
lhand -20.0031 10.6495
lfingers 7.12502
lthumb 6.33681 40.5347
rfemur -9.76209 16.5614 24.8644
rtibia 33.0685
rfoot -31.4745 -30.1588
rtoes -22.3715
lfemur -10.9762 -17.6439 -21.3724
ltibia 34.815
lfoot -27.809 24.2142
ltoes -4.34745
33
root -24.0901 14.9786 -0.368741 -10.755 85.9071 -10.2081
lowerback 4.51363 2.36051 -0.195211
upperback 3.01077 3.2012 -1.33918
thorax 0.631026 1.63774 -1.38568
lowerneck -11.3242 4.81377 8.62358
upperneck 10.8771 5.44173 -2.77086
head 5.4521 2.8346 -1.8132
rclavicle 7.15625e-015 -3.18055e-015
rhumerus -36.7283 -1.22409 -88.3596
rradius 36.26
rwrist -21.2007
rhand -17.4552 0.0110345
rfingers 7.12502
rthumb 8.79609 -29.7857
lclavicle 7.15625e-015 -3.18055e-015
lhumerus -31.5983 -1.88961 84.1573
lradius 30.5927
lwrist -1.198
lhand -20.0722 10.7746
lfingers 7.12502
lthumb 6.27012 40.6618
rfemur -9.79442 16.5716 24.7769
rtibia 33.0831
rfoot -31.4523 -30.2262
rtoes -22.528
lfemur -10.9756 -17.6597 -21.4565
ltibia 34.7784
lfoot -27.8264 24.2239
ltoes -4.24088
34
root -24.0917 14.9792 -0.370061 -9.63932 85.9235 -9.12378
lowerback 4.47728 2.32676 -0.328009
upperback 3.01074 3.15206 -1.34806
thorax 0.643461 1.61134 -1.31726
lowerneck -11.3553 4.8636 8.66967
upperneck 11.0432 5.50206 -2.77365
head 5.51446 2.86843 -1.81397
rclavicle -3.98066e-014 4.77083e-015
rhumerus -36.7118 -1.14867 -88.3854
rradius 36.2205
rwrist -21.156
rhand -17.4233 0.0244041
rfingers 7.12502
rthumb 8.82683 -29.771
lclavicle -3.98066e-014 4.77083e-015
lhumerus -31.5656 -1.78989 84.07
lradius 30.6074
lwrist -1.20635
lhand -20.1086 10.7929
lfingers 7.12502
lthumb 6.23501 40.6811
rfemur -9.84745 16.511 24.6649
rtibia 33.0901
rfoot -31.3444 -30.2405
rtoes -22.7875
lfemur -10.9928 -17.6816 -21.5398
ltibia 34.7445
lfoot -27.8974 24.2035
ltoes -4.05016
35
root -24.0934 14.9805 -0.371001 -9.85485 85.8956 -9.38572
lowerback 4.44373 2.3022 -0.353922
upperback 2.99592 3.11794 -1.34045
thorax 0.64436 1.59347 -1.29262
lowerneck -11.417 4.89373 8.69693
upperneck 11.2533 5.53413 -2.75604
head 5.59312 2.88971 -1.80687
rclavicle -1.84373e-014 1.27222e-014
rhumerus -36.7266 -1.0597 -88.4352
rradius 36.2239
rwrist -21.1511
rhand -17.3768 0.0206199
rfingers 7.12502
rthumb 8.87176 -29.7729
lclavicle -1.84373e-014 1.27222e-014
lhumerus -31.5729 -1.8085 84.0034
lradius 30.6679
lwrist -1.12539
lhand -20.2372 10.9645
lfingers 7.12502
lthumb 6.11077 40.8563
rfemur -9.90324 16.4818 24.6591
rtibia 33.0799
rfoot -31.3675 -30.15
rtoes -22.6662
lfemur -11.0373 -17.7041 -21.5046
ltibia 34.7234
lfoot -27.9292 24.218
ltoes -3.90022
36
root -24.0939 14.9822 -0.372566 -10.9297 85.8482 -10.5016
lowerback 4.40201 2.28447 -0.293099
upperback 2.9806 3.09548 -1.30544
thorax 0.652575 1.58225 -1.28835
lowerneck -11.298 4.89268 8.71086
upperneck 11.2258 5.54987 -2.81641
head 5.56747 2.89449 -1.82944
rclavicle 4.72114e-015 7.15625e-015
rhumerus -36.7511 -0.954029 -88.4652
rradius 36.2489
rwrist -21.1785
rhand -17.3272 0.0139885
rfingers 7.12502
rthumb 8.91962 -29.7775
lclavicle 4.72114e-015 7.15625e-015
lhumerus -31.5801 -1.80939 83.9714
lradius 30.7143
lwrist -1.03459
lhand -20.3272 11.0894
lfingers 7.12502
lthumb 6.02394 40.9838
rfemur -9.93418 16.4678 24.7277
rtibia 33.0552
rfoot -31.3707 -30.0759
rtoes -22.6862
lfemur -11.0723 -17.715 -21.4116
ltibia 34.7119
lfoot -27.9048 24.2779
ltoes -3.93834
37
root -24.0939 14.984 -0.374222 -10.9761 85.8323 -10.5993
lowerback 4.33416 2.28737 -0.285332
upperback 2.97603 3.09977 -1.29943
thorax 0.685814 1.58423 -1.28367
lowerneck -11.2444 4.88604 8.69884
upperneck 11.236 5.54695 -2.80328
head 5.56082 2.89433 -1.82472
rclavicle -1.09829e-014 -2.78299e-015
rhumerus -36.7336 -0.919028 -88.4732
rradius 36.2357
rwrist -21.2392
rhand -17.2413 0.0638977
rfingers 7.12502
rthumb 9.0025 -29.724
lclavicle -1.09829e-014 -2.78299e-015
lhumerus -31.5304 -1.80898 83.9671
lradius 30.7445
lwrist -1.05014
lhand -20.2832 11.1748
lfingers 7.12502
lthumb 6.06637 41.0679
rfemur -9.98441 16.3902 24.7018
rtibia 33.0271
rfoot -31.1882 -30.0583
rtoes -23.0296
lfemur -11.1172 -17.7374 -21.3981
ltibia 34.6989
lfoot -27.89 24.3077
ltoes -3.95375
